<?xml version="1.0" encoding="iso-8859-1"?>
<!-- Generator: Adobe Illustrator 19.0.0, SVG Export Plug-In . SVG Version: 6.00 Build 0)  -->
<svg version="1.1" id="Capa_1" xmlns="http://www.w3.org/2000/svg" xmlns:xlink="http://www.w3.org/1999/xlink" x="0px" y="0px"
	 viewBox="0 0 512 512" style="enable-background:new 0 0 512 512;" xml:space="preserve">
<path style="fill:#49A8E2;" d="M216.78,482.812l5.005,13.597c3.744,9.41,12.847,15.586,22.975,15.586h20.949
	c11.052,0,20.987-6.74,25.072-17.009l4.439-12.174C277.934,482.812,234.138,482.812,216.78,482.812z"/>
<path style="fill:#209AC9;" d="M247.158,496.409l-5.005-13.597c-9.349,0-16.015,0-25.373,0l5.005,13.597
	c3.744,9.41,12.848,15.586,22.975,15.586c21.732-0.038,21.01,0.084,23.219-0.102C258.732,511.087,250.634,505.146,247.158,496.409z"
	/>
<path style="fill:#AAE8F2;" d="M196.049,447.165c0,6.838,0,13.666,0,20.526c0,8.875,7.261,16.136,16.136,16.136h87.63
	c8.875,0,16.136-7.261,16.136-16.136v-1.345v-19.181C303.91,447.165,213.133,447.165,196.049,447.165z"/>
<path style="fill:#91DDE5;" d="M221.422,467.691c0-6.86,0-13.688,0-20.526c-8.773,0-16.582,0-25.373,0c0,6.838,0,13.666,0,20.526
	c0,8.875,7.261,16.136,16.136,16.136h25.373C228.683,483.827,221.422,476.566,221.422,467.691z"/>
<path style="fill:#DFF3F4;" d="M182.042,414.562c0,5.9,0,10.583,0,19.511c0,8.875,7.261,16.136,16.136,16.136h115.644
	c8.875,0,16.136-7.261,16.136-16.136c0-5.612,0-10.554,0-19.511C314.324,414.562,200.305,414.562,182.042,414.562z"/>
<path style="fill:#AAE8F2;" d="M207.415,434.073c0-5.612,0-10.554,0-19.511c-8.773,0-16.582,0-25.373,0c0,5.9,0,10.583,0,19.511
	c0,8.875,7.261,16.136,16.136,16.136h25.373C214.676,450.21,207.415,442.948,207.415,434.073z"/>
<path style="fill:#FFB103;" d="M421.553,222.644c0-90.822-73.134-164.562-163.724-165.543
	C166.49,56.113,90.447,131.3,90.447,222.645c0,57.434,29.252,108.029,73.665,137.718c11.141,7.448,17.929,19.874,17.929,33.275
	v22.954h147.917v-24.647c0-12.483,6.412-24.008,16.844-30.863C391.824,331.495,421.553,280.544,421.553,222.644z"/>
<path style="fill:#E0930A;" d="M207.415,416.592v-31.074c0-13.401-6.788-25.827-17.929-33.275
	c-44.414-29.689-73.665-80.284-73.665-137.718c0-68.756,43.086-128.351,103.347-153.203
	c-73.17,16.994-128.721,83.252-128.72,161.322c0,57.434,29.252,108.029,73.665,137.718c11.141,7.448,17.929,19.874,17.929,33.275
	v22.954h25.373V416.592z"/>
<rect x="182.04" y="390.79" style="fill:#FF9203;" width="147.92" height="25.807"/>
<path style="fill:#F47A0B;" d="M182.042,390.786c0,4.454,0,15.737,0,25.807h25.373v-25.807H182.042z"/>
<path style="fill:#93BA36;" d="M369.095,163.405c-1.649-7.171-7.367-11.996-14.713-12.417
	c-64.265-3.677-122.454,65.255-108.024,128.002c1.649,7.171,7.367,11.996,14.713,12.417
	C325.335,295.083,383.524,226.151,369.095,163.405z"/>
<path style="fill:#8AAA26;" d="M364.986,185.843c2.222,0.127,4.291,0.663,6.147,1.539c0.4-8.228-0.273-16.302-2.038-23.977
	c-1.649-7.171-7.367-11.996-14.713-12.417c-28.958-1.657-60.748,12.074-83.54,39.081s-30.984,60.653-24.484,88.921
	c1.15,5.002,4.284,8.857,8.566,10.878C257.699,232.71,310.586,182.73,364.986,185.843z"/>
<g>
	<path style="fill:#FFB103;" d="M471.033,230.256h-22.735c-4.204,0-7.612-3.408-7.612-7.612s3.408-7.612,7.612-7.612h22.735
		c4.204,0,7.612,3.408,7.612,7.612C478.645,226.849,475.237,230.256,471.033,230.256z"/>
	<path style="fill:#FFB103;" d="M63.702,230.256H40.967c-4.204,0-7.612-3.408-7.612-7.612s3.408-7.612,7.612-7.612h22.735
		c4.204,0,7.612,3.408,7.612,7.612C71.314,226.849,67.906,230.256,63.702,230.256z"/>
	<path style="fill:#FFB103;" d="M422.542,134.108c-2.63,0-5.189-1.365-6.599-3.807c-2.102-3.64-0.854-8.296,2.786-10.398
		l19.689-11.367c3.64-2.1,8.296-0.855,10.398,2.786c2.102,3.64,0.854,8.296-2.786,10.398l-19.689,11.367
		C425.142,133.779,423.833,134.108,422.542,134.108z"/>
	<path style="fill:#FFB103;" d="M69.783,337.774c-2.63,0-5.189-1.365-6.599-3.807c-2.102-3.64-0.855-8.296,2.786-10.398
		l19.689-11.368c3.639-2.101,8.296-0.855,10.398,2.786c2.102,3.64,0.855,8.296-2.786,10.398l-19.689,11.368
		C72.384,337.445,71.074,337.774,69.783,337.774z"/>
	<path style="fill:#FFB103;" d="M348.343,62.701c-3.641-2.102-4.888-6.758-2.786-10.398l11.367-19.689
		c2.101-3.641,6.757-4.887,10.398-2.786c3.641,2.102,4.888,6.758,2.786,10.398l-11.367,19.689
		C356.633,63.567,351.974,64.797,348.343,62.701z"/>
	<path style="fill:#FFB103;" d="M144.678,415.461c-3.641-2.102-4.888-6.758-2.786-10.398l11.367-19.689
		c2.102-3.641,6.757-4.888,10.398-2.786c3.641,2.102,4.888,6.758,2.786,10.398l-11.367,19.689
		C152.967,416.326,148.309,417.556,144.678,415.461z"/>
	<path style="fill:#FFB103;" d="M256,37.958c-4.204,0-7.612-3.408-7.612-7.612V7.612C248.388,3.408,251.796,0,256,0
		c4.204,0,7.612,3.408,7.612,7.612v22.735C263.612,34.551,260.204,37.958,256,37.958z"/>
	<path style="fill:#FFB103;" d="M153.259,59.915l-11.367-19.689c-2.102-3.64-0.855-8.296,2.786-10.398
		c3.64-2.1,8.296-0.855,10.398,2.786l11.367,19.689c2.102,3.64,0.855,8.296-2.786,10.398
		C160.032,64.793,155.37,63.572,153.259,59.915z"/>
	<path style="fill:#FFB103;" d="M356.924,412.674l-11.367-19.689c-2.102-3.64-0.855-8.296,2.786-10.398
		c3.641-2.101,8.296-0.855,10.398,2.786l11.367,19.689c2.102,3.64,0.855,8.296-2.786,10.398
		C363.698,417.552,359.036,416.332,356.924,412.674z"/>
	<path style="fill:#FFB103;" d="M89.458,134.108c-1.291,0-2.6-0.329-3.799-1.021L65.97,121.72
		c-3.641-2.102-4.888-6.758-2.786-10.398c2.101-3.641,6.757-4.887,10.398-2.786l19.689,11.367c3.641,2.102,4.888,6.758,2.786,10.398
		C94.647,132.744,92.089,134.108,89.458,134.108z"/>
	<path style="fill:#FFB103;" d="M442.217,337.774c-1.291,0-2.6-0.329-3.799-1.021l-19.689-11.368
		c-3.641-2.102-4.888-6.758-2.786-10.398c2.102-3.641,6.757-4.888,10.398-2.786l19.689,11.368c3.641,2.102,4.888,6.758,2.786,10.398
		C447.407,336.41,444.848,337.774,442.217,337.774z"/>
</g>
<path style="fill:#93BA36;" d="M139.727,234.995c0.334-4.646,3.441-8.221,7.995-9.199c39.842-8.553,82.947,28.905,80.026,69.559
	c-0.334,4.646-3.441,8.221-7.995,9.199c-17.953,3.854-39.174-1.642-56.059-16.319C146.808,273.559,138.41,253.31,139.727,234.995z"
	/>
<path style="fill:#8AAA26;" d="M160.215,225.872c0.03-0.421,0.091-0.829,0.166-1.231c-4.327-0.088-8.58,0.28-12.659,1.156
	c-4.554,0.978-7.662,4.552-7.995,9.199c-2.921,40.645,40.175,78.113,80.026,69.559c4.142-0.889,7.08-3.93,7.83-7.968
	C190.616,295.836,157.669,261.305,160.215,225.872z"/>
<path style="fill:#AA5D24;" d="M341.917,183.113c-2.115-3.633-6.774-4.864-10.407-2.75c-11.51,6.698-21.705,14.272-30.751,22.34
	c-0.456-3.273-1.032-5.401-1.091-5.615c-1.121-4.04-5.294-6.4-9.34-5.291c-4.044,1.106-6.428,5.289-5.336,9.337
	c0.024,0.09,2.304,8.781,0.255,17.054c-23.196,25.886-39.151,57.053-48.7,89.623c-10.689-20.841-29.599-46.886-61.504-62.433
	c-3.779-1.843-8.336-0.273-10.177,3.509c-1.842,3.779-0.271,8.335,3.508,10.177c46.303,22.563,60.55,70.073,62.362,72.932
	c-1.54,8.283-1.997,13.395-2.037,13.876c-0.373,4.422,3.107,8.252,7.594,8.252c3.914,0,7.241-3,7.577-6.972
	c0.058-0.688,4.353-46.521,32.503-91.772c10.616-3.324,23.18-2.712,23.316-2.703c4.197,0.225,7.78-2.985,8.012-7.181
	c0.232-4.197-2.982-7.788-7.18-8.02c-0.378-0.022-5.251-0.27-11.829,0.273c12.867-16.418,29.355-31.936,50.476-44.227
	C342.799,191.407,344.031,186.746,341.917,183.113z"/>
<g>
</g>
<g>
</g>
<g>
</g>
<g>
</g>
<g>
</g>
<g>
</g>
<g>
</g>
<g>
</g>
<g>
</g>
<g>
</g>
<g>
</g>
<g>
</g>
<g>
</g>
<g>
</g>
<g>
</g>
</svg>
