<?xml version="1.0" encoding="iso-8859-1"?>
<!-- Generator: Adobe Illustrator 19.0.0, SVG Export Plug-In . SVG Version: 6.00 Build 0)  -->
<svg version="1.1" id="Capa_1" xmlns="http://www.w3.org/2000/svg" xmlns:xlink="http://www.w3.org/1999/xlink" x="0px" y="0px"
	 viewBox="0 0 512 512" style="enable-background:new 0 0 512 512;" xml:space="preserve">
<rect x="40.638" y="91.171" style="fill:#FF8A4C;" width="223.807" height="36.832"/>
<path style="fill:#FFC065;" d="M264.445,17.067H111.139c-47.129,0-85.335,38.205-85.335,85.335v17.065
	c0,6.371,3.491,11.926,8.664,14.858c3.612,2.047,8.23-0.121,9.005-4.199c2.999-15.788,16.871-27.724,33.532-27.724h187.441V17.067
	H264.445z"/>
<path style="fill:#6E6857;" d="M111.139,17.067c-47.129,0-85.335,38.205-85.335,85.335v17.065c0,6.371,3.491,11.926,8.664,14.858
	c3.612,2.047,8.23-0.121,9.005-4.199c2.999-15.788,16.871-27.724,33.531-27.724l-0.001-0.001c32.989,0,59.733-26.743,59.733-59.733
	V17.067H111.139z"/>
<path style="fill:#2D858E;" d="M298.873,0h-34.135c-9.426,0-17.067,7.641-17.067,17.067l-0.002,204.798
	c-103.682,0-187.732,84.05-187.732,187.732v68.27c0,9.426,7.641,17.067,17.067,17.067h102.398l119.47-0.002
	c5.764,0,11.461-0.285,17.077-0.844l85.327-33.281c41.448-31.136,68.259-80.706,68.259-136.538l0.002-153.602
	C469.539,76.41,393.129,0,298.873,0z"/>
<path style="fill:#1D6363;" d="M298.873,0h-20.604c94.256,0,170.666,76.41,170.666,170.666l-0.002,153.602
	c0,55.832-26.81,105.402-68.259,136.538l-85.327,33.281c-5.617,0.558-11.313,0.844-17.077,0.844l-119.47,0.002h20.604l119.47-0.002
	c5.764,0,11.461-0.285,17.077-0.844l85.327-33.281c41.448-31.136,68.259-80.706,68.259-136.538l0.002-153.602
	C469.539,76.41,393.129,0,298.873,0z"/>
<path style="fill:#FFF1D0;" d="M247.672,170.666c0,18.85,15.282,34.132,34.132,34.132h68.266c28.276,0,51.198-22.923,51.198-51.198
	v-17.067c0-65.978-53.486-119.464-119.464-119.464H247.67L247.672,170.666z"/>
<path style="fill:#FFE6A0;" d="M281.806,17.069h-20.604c65.978,0,119.464,53.486,119.464,119.464V153.6
	c0,28.275-22.922,51.198-51.198,51.198h20.603c28.276,0,51.198-22.923,51.198-51.198v-17.067
	C401.269,70.554,347.784,17.069,281.806,17.069z"/>
<g>
	<path style="fill:#1D6363;" d="M418.338,248.273c-4.267,0-7.726,3.459-7.726,7.726c0,28.676-23.331,52.007-52.007,52.007
		s-52.007-23.331-52.007-52.007c0-4.267-3.459-7.726-7.726-7.726s-7.726,3.459-7.726,7.726c0,37.197,30.263,67.459,67.459,67.459
		s67.459-30.263,67.459-67.459C426.064,251.732,422.605,248.273,418.338,248.273z"/>
	<path style="fill:#1D6363;" d="M196.472,299.473c-4.267,0-7.726,3.459-7.726,7.726c0,52.203-42.471,94.674-94.674,94.674
		c-4.267,0-7.726,3.459-7.726,7.726c0,4.267,3.459,7.726,7.726,7.726c60.724,0,110.126-49.402,110.126-110.126
		C204.198,302.931,200.739,299.473,196.472,299.473z"/>
</g>
<circle style="fill:#2D858E;" cx="298.866" cy="68.27" r="17.068"/>
<path style="fill:#FFE6A0;" d="M281.805,144.26c-4.267,0-7.726-3.459-7.726-7.726s3.459-7.726,7.726-7.726
	c33.382,0,60.54-27.158,60.54-60.54c0-4.267,3.459-7.726,7.726-7.726c4.267,0,7.726,3.459,7.726,7.726
	C357.797,110.171,323.707,144.26,281.805,144.26z"/>
<path style="fill:#1D6363;" d="M59.938,453.073v15.453h17.067c98.366,0,178.393-80.027,178.393-178.392
	c0-4.267-3.459-7.726-7.726-7.726c-4.267,0-7.726,3.459-7.726,7.726c0,89.845-73.094,162.94-162.941,162.94H59.938z"/>
<path style="fill:#FFC065;" d="M480.011,512c3.702,0,6.626-3.24,6.131-6.909c-3.374-25.01-24.804-44.291-50.737-44.291h-85.333
	c-16.302,0-29.935,11.429-33.323,26.711c-0.847,3.819,2.148,7.421,6.06,7.421h56.819c2.077,3.588,3.523,7.586,4.179,11.845
	c0.464,3.007,3.047,5.222,6.089,5.222C407.53,512,461.206,512,480.011,512z"/>
<g>
	<path style="fill:#FF8A4C;" d="M316.748,487.511c-0.847,3.819,2.148,7.421,6.06,7.421h56.819c0.184,0.318-0.174-0.324,0,0
		c-4.276-8.706-12.357-19.675-29.555-34.132C333.769,460.8,320.136,472.229,316.748,487.511z"/>
	<path style="fill:#FF8A4C;" d="M426.064,512c0-14.895-8.017-28.786-20.922-36.252c-3.693-2.138-8.42-0.875-10.557,2.819
		c-2.137,3.693-0.876,8.42,2.819,10.556c8.147,4.713,13.207,13.48,13.207,22.877l0,0C415.457,512,420.686,512,426.064,512
		L426.064,512z"/>
	<path style="fill:#FF8A4C;" d="M460.195,512c0-14.895-8.017-28.786-20.922-36.252c-3.693-2.138-8.421-0.876-10.557,2.819
		c-2.137,3.693-0.876,8.42,2.819,10.556c8.147,4.713,13.208,13.48,13.208,22.877l0,0C450.119,512,455.351,512,460.195,512
		L460.195,512z"/>
</g>
<path style="fill:#FFC065;" d="M292.147,512c3.702,0,6.626-3.24,6.131-6.909c-3.374-25.01-24.804-44.291-50.737-44.291h-85.333
	c-16.303,0-29.935,11.429-33.323,26.711c-0.847,3.819,2.148,7.421,6.06,7.421h56.819c2.077,3.588,3.523,7.586,4.179,11.845
	c0.464,3.007,3.047,5.222,6.089,5.222C219.666,512,273.342,512,292.147,512z"/>
<g>
	<path style="fill:#FF8A4C;" d="M128.884,487.511c-0.847,3.819,2.148,7.421,6.06,7.421h56.819c0.184,0.318-0.174-0.324,0,0
		c-4.276-8.706-12.357-19.675-29.555-34.132C145.905,460.8,132.273,472.229,128.884,487.511z"/>
	<path style="fill:#FF8A4C;" d="M238.2,512c0-14.895-8.017-28.786-20.922-36.252c-3.693-2.138-8.42-0.875-10.557,2.819
		c-2.137,3.693-0.876,8.42,2.819,10.556c8.147,4.713,13.207,13.48,13.207,22.877l0,0C227.594,512,232.822,512,238.2,512L238.2,512z"
		/>
	<path style="fill:#FF8A4C;" d="M272.331,512c0-14.895-8.017-28.786-20.922-36.252c-3.693-2.138-8.421-0.876-10.557,2.819
		c-2.137,3.693-0.876,8.42,2.819,10.556c8.147,4.713,13.208,13.48,13.208,22.877l0,0C262.256,512,267.487,512,272.331,512
		L272.331,512z"/>
</g>
<g>
</g>
<g>
</g>
<g>
</g>
<g>
</g>
<g>
</g>
<g>
</g>
<g>
</g>
<g>
</g>
<g>
</g>
<g>
</g>
<g>
</g>
<g>
</g>
<g>
</g>
<g>
</g>
<g>
</g>
</svg>
