<?xml version="1.0" encoding="utf-8"?>
<!-- Generator: Adobe Illustrator 16.0.0, SVG Export Plug-In . SVG Version: 6.00 Build 0)  -->
<!DOCTYPE svg PUBLIC "-//W3C//DTD SVG 1.1//EN" "http://www.w3.org/Graphics/SVG/1.1/DTD/svg11.dtd">
<svg version="1.1" id="Layer_1" xmlns="http://www.w3.org/2000/svg" xmlns:xlink="http://www.w3.org/1999/xlink" x="0px" y="0px"
	 width="188.372px" height="40.465px" viewBox="0 0 188.372 40.465" enable-background="new 0 0 188.372 40.465"
	 xml:space="preserve">
<g>
	<g>
		<g>
			<g>
				<g>
					<g>
						<path fill="#FFFFFF" d="M19.322,31.635c0.032-1.404,0.063-2.809,0.063-4.248v-4.079c0-0.168-0.031-0.535-0.063-0.7
							c-0.191-0.603-0.708-1.237-1.958-1.237c-1.094,0-1.736,0.4-2.088,0.602v4.578c0,0.938,0.03,1.907,0.063,2.844
							c0.063,0.736,0.096,1.504,0.161,2.241h-5.074c0.128-1.639,0.225-3.278,0.289-4.916c0.032-1.336,0.032-2.673,0.032-4.012
							V12.576c-0.032-0.77-0.032-1.573-0.096-2.375c-0.031-0.769-0.129-1.505-0.193-2.273c0.899-0.167,1.831-0.334,2.731-0.568
							c0.833-0.167,1.668-0.402,2.504-0.635c-0.129,1.571-0.258,3.109-0.321,4.681c-0.066,1.437-0.066,2.842-0.066,4.279
							c-0.03,0.803-0.03,1.638-0.03,2.441c0.577-0.199,1.829-0.703,3.5-0.703c1.733,0,2.729,0.537,3.308,1.003
							c0.642,0.503,1.059,1.171,1.188,1.404c0.899,1.639,0.737,4.048,0.674,5.887c0,1.972,0,3.945,0.063,5.918H19.322L19.322,31.635
							z"/>
						<path fill="#FFFFFF" d="M40.742,19.061c-0.513,1.338-2.666,7.158-5.525,11.771c-0.577,0.969-2.121,3.311-4.271,5.719
							c-0.579,0.636-1.189,1.268-1.829,1.871l-2.763-3.443c0.352-0.267,0.705-0.568,1.026-0.87c0.772-0.703,2.345-2.274,3.791-4.681
							c-2.698-4.145-3.629-5.617-5.813-10.098l4.4-2.04c0.288,0.803,0.608,1.604,0.962,2.374c0.29,0.703,0.642,1.406,0.963,2.107
							c0.612,1.303,1.286,2.606,1.96,3.881c0.545-1.308,1.09-2.644,1.573-3.98c0.483-1.473,0.966-2.942,1.417-4.379L40.742,19.061z"
							/>
						<path fill="#FFFFFF" d="M41.865,34.94c0.097-1.773,0.192-3.51,0.226-5.283c0.031-1.303,0.031-2.607,0.063-3.913v-5.617
							c0-1.67-0.16-2.105-0.514-2.941c1.061-0.635,3.373-2.173,6.743-2.173c0.483,0,1.704,0.033,3.021,0.5
							c2.793,1.004,4.754,3.478,4.754,6.62c0,0.769-0.129,2.575-1.35,4.281c-0.739,1.036-2.571,2.739-5.814,2.739
							c-0.707,0-1.221-0.032-2.505-0.265c0,1.102,0,2.205,0.032,3.309c0.033,1.104,0.096,2.206,0.162,3.312L41.865,34.94z
							 M46.554,24.44c0.738,0.301,1.346,0.569,2.184,0.569c0.162,0,0.513-0.032,0.929-0.136c0.645-0.2,1.991-0.866,1.991-2.772
							c0-1.941-1.411-2.944-3.146-2.944c-0.834,0-1.252,0.168-1.958,0.536V24.44z"/>
						<path fill="#FFFFFF" d="M62.033,26.287c1.058,1.703,2.504,1.972,3.308,1.972c1.604,0,2.954-1.036,3.341-1.271l2.697,2.908
							c-0.417,0.335-0.803,0.602-1.284,0.869c-0.74,0.436-2.637,1.337-5.045,1.337c-0.479,0-1.635-0.033-2.953-0.535
							c-2.76-1.037-4.593-3.512-4.593-6.653c0-0.536,0.033-1.538,0.481-2.776c1.158-3.076,3.757-4.747,6.906-4.747
							c3.917,0,6.968,2.709,6.968,6.887c0,0.668-0.032,0.871-0.194,2.009H62.033z M67.62,23.14
							c-0.032-0.132-0.096-0.532-0.288-0.935c-0.483-0.87-1.414-1.305-2.377-1.305c-0.323,0-1.798,0.132-2.506,1.338
							c-0.224,0.401-0.254,0.735-0.254,0.901H67.62L67.62,23.14z"/>
					</g>
				</g>
				<path fill="#FFFFFF" d="M2.589,31.337c0-2.079,1.595-3.765,3.563-3.765c0.378,0,0.742,0.063,1.083,0.179
					c-0.54-0.372-1.184-0.592-1.881-0.592c-1.902,0-3.432,1.592-3.432,3.569c0,0.929,0.373,1.859,0.97,2.521
					c0.132,0.137,0.278,0.262,0.432,0.374C2.865,32.988,2.589,32.198,2.589,31.337z"/>
				<path fill="#FFFFFF" d="M8.21,31.574l-2.949,1.799c-0.212,0.129-0.385,0.023-0.385-0.235v-3.597
					c0-0.257,0.173-0.363,0.385-0.234l2.949,1.798C8.421,31.235,8.421,31.447,8.21,31.574z"/>
			</g>
		</g>
	</g>
	<g>
		<g>
			<path fill="#FFFFFF" d="M81.521,28.153c0.035,0.519,0.351,4.834-2,7.837c-0.316,0.414-0.386,0.519-1.053,1.104l-4.14-2.383
				c0.315-0.448,0.667-0.861,0.913-1.276c0.982-1.554,1.087-2.864,1.192-4.384v-7.837c-0.035-1.552-0.105-3.141-0.21-4.695
				l5.402-0.759c-0.07,0.967-0.105,1.967-0.105,2.934V28.153L81.521,28.153z"/>
			<path fill="#FFFFFF" d="M94.678,31.69l-0.456-1.207c-0.632,0.414-2.07,1.484-4.21,1.484c-0.912,0-2.702-0.174-4.28-1.864
				c-0.737-0.761-1.018-1.45-1.158-1.829c-0.246-0.656-0.316-1.003-0.351-2.245v-8.768l5.192-0.069
				c-0.07,1.726-0.105,3.486-0.14,5.212v2.521c0,0.725,0,1.035,0.105,1.346c0.175,0.552,0.632,1.208,1.964,1.208
				c0.703,0,1.229-0.104,2.352-0.795v-9.423l5.263-0.069c-0.105,2.796-0.247,5.591-0.247,8.422c0,2.037,0.106,3.142,0.422,5.145
				L94.678,31.69z"/>
			<path fill="#FFFFFF" d="M111.029,33.636c0.069-1.934,0.14-3.832,0.14-5.765c0-1.762,0.035-3.073-0.315-3.729
				c-0.386-0.69-1.334-0.934-2.105-0.934c-1.123,0-1.824,0.484-2.175,0.692c0,1.656-0.035,3.313,0,4.971l0.105,4.764h-5.264
				c0.105-2.417,0.177-4.799,0.177-7.18c-0.036-2.107-0.106-3.212-0.633-5.179c0.456-0.276,0.913-0.587,1.403-0.794
				c1.017-0.483,3.438-1.415,6.526-1.415c0.315,0,1.474,0,2.491,0.24c2.631,0.553,3.824,1.899,4.315,2.899
				c0.597,1.141,0.562,2.418,0.562,2.797c0,0.622-0.036,1.243-0.036,1.864c-0.035,1.036-0.07,2.037-0.07,3.038
				c0,1.242,0.07,2.485,0.106,3.728L111.029,33.636L111.029,33.636z"/>
			<path fill="#FFFFFF" d="M121.209,25.164c0.65,0.107,1.892,0.462,3.452-0.172c1.56-0.633,2.407-2.281,1.757-3.879
				c-0.713-1.76-2.657-2.35-4.347-1.664c-1.04,0.423-1.763,1.163-1.99,1.441c-0.124,0.162-0.287,0.414-0.553,0.782l-3.47-2.392
				c0.2-0.343,0.448-0.666,0.695-0.99c0.456-0.558,1.979-2.218,4.123-3.09c0.553-0.223,1.769-0.68,3.349-0.613
				c1.345,0.052,5.121,0.678,6.719,4.613c0.324,0.8,0.959,2.739,0.164,5.074c-0.357,1.076-1.51,3.741-4.63,5.009
				c-2.874,1.129-5.351,0.346-6.378,0.054L121.209,25.164z"/>
			<path fill="#FFFFFF" d="M143.707,21.638v4.074h-3.262v1.968c0,1.208,0.032,2.002,0.28,2.485c0.386,0.725,1.227,0.793,1.437,0.793
				c0.668,0,1.157-0.31,1.72-0.586l1.685,3.417c-0.633,0.312-2.49,1.381-4.736,1.381c-0.735,0-2.668-0.104-4.07-1.76
				c-0.212-0.242-0.665-0.829-0.948-1.692c-0.28-0.896-0.315-1.932-0.351-2.865v-3.21h-1.893v-4.005h1.893v-4.764
				c-0.035-0.897-0.035-1.76-0.07-2.658l5.475-0.897c-0.175,1.967-0.315,3.969-0.388,5.971c-0.032,0.761-0.032,1.555-0.032,2.348
				H143.707L143.707,21.638z"/>
			<path fill="#FFFFFF" d="M167.523,17.777c0.807,0.656,2.946,2.625,2.946,5.8c0,0.483-0.035,1.554-0.563,2.797
				c-1.262,2.968-4.243,4.866-7.508,4.866c-0.561,0-1.612-0.034-2.911-0.551c-2.981-1.175-5.052-3.799-5.052-7.043
				c0-0.863,0.141-1.484,0.245-1.83c0.456-1.656,1.683-3.349,3.122-4.35c0.666-0.449,2.315-1.38,4.563-1.414
				C163.171,16.052,165.559,16.224,167.523,17.777z M162.366,26.856c1.788,0,3.226-1.449,3.226-3.176
				c0-1.761-1.473-3.141-3.226-3.141c-1.791,0-3.193,1.414-3.193,3.141c0,0.448,0.105,1.416,0.946,2.244
				C160.399,26.2,161.208,26.856,162.366,26.856z"/>
			<path fill="#FFFFFF" d="M181.156,29.886c0.069-1.934,0.14-3.832,0.14-5.765c0-1.761,0.035-3.072-0.315-3.729
				c-0.388-0.69-1.334-0.933-2.105-0.933c-1.123,0-1.824,0.484-2.175,0.691c0,1.656-0.037,3.314,0,4.971l0.105,4.764h-5.265
				c0.105-2.417,0.178-4.798,0.178-7.182c-0.037-2.104-0.105-3.209-0.634-5.176c0.456-0.277,0.914-0.587,1.404-0.795
				c1.017-0.483,3.438-1.414,6.526-1.414c0.315,0,1.472,0,2.49,0.24c2.632,0.552,3.825,1.899,4.316,2.9
				c0.596,1.141,0.561,2.416,0.561,2.796c0,0.621-0.035,1.244-0.035,1.863c-0.035,1.038-0.07,2.038-0.07,3.04
				c0,1.242,0.07,2.485,0.105,3.728H181.156L181.156,29.886z"/>
			<path fill="#FFFFFF" d="M155.633,8.965c-0.625,0-1.17,0.331-1.477,0.827l-2.604-0.438c-0.024-0.454-0.143-0.883-0.336-1.266
				l1.619-1.327c0.324,0.204,0.708,0.322,1.117,0.322c1.159,0,2.102-0.941,2.102-2.101c0-1.16-0.942-2.101-2.102-2.101
				c-1.161,0-2.101,0.941-2.101,2.101c0,0.239,0.042,0.467,0.116,0.68l-1.639,1.341c-0.546-0.427-1.231-0.687-1.979-0.687
				c-1.771,0-3.209,1.437-3.209,3.209c0,1.772,1.438,3.209,3.209,3.209c1.346,0,2.493-0.827,2.971-2l2.645,0.445
				c0.21,0.725,0.876,1.256,1.667,1.256c0.959,0,1.734-0.778,1.734-1.736C157.367,9.743,156.592,8.965,155.633,8.965z"/>
			<path fill="#FFFFFF" d="M151.885,15.216c-0.005,0.624-0.009,1.251,0.053,1.833c0.02,0.519,0.074,1.034,0.129,1.548l0.757,7.21
				c0.064,0.617,0.134,1.271,0.232,1.884c0.096,0.581,0.188,1.126,0.313,1.667l-5.354,0.563c-0.016-0.484,0.002-0.973-0.048-1.453
				c-0.021-0.519-0.077-1.066-0.102-1.621l-0.721-6.865c-0.103-0.648-0.175-1.334-0.282-2.018c-0.108-0.718-0.258-1.465-0.368-2.184
				L151.885,15.216z"/>
			<path fill="#FFFFFF" d="M152.032,38.088c-0.423,0-1.438-0.104-2.316-0.968c-0.561-0.587-0.911-1.415-0.911-2.243
				c0-0.197,0.02-0.388,0.053-0.572c-0.191,0.405-0.303,0.859-0.303,1.343c0,0.831,0.352,1.659,0.913,2.246
				c0.877,0.863,1.894,0.966,2.314,0.966c1.598,0,2.938-1.128,3.21-2.62C154.473,37.333,153.338,38.088,152.032,38.088z"/>
			<g>
				<path fill="#FFFFFF" d="M154.208,31.295c-0.563,0-1.021,0.458-1.021,1.021c0,0.564,0.457,1.021,1.021,1.021
					c0.564,0,1.021-0.456,1.021-1.021C155.229,31.753,154.771,31.295,154.208,31.295z"/>
				<path fill="#FFFFFF" d="M152.381,33.868c-0.022,0.208-0.196,0.372-0.411,0.372s-0.39-0.164-0.409-0.372
					c-0.918,0.188-1.606,1.001-1.606,1.974h1.897c-0.162-0.69-0.379-1.584,0.118-1.584c0.496,0,0.281,0.894,0.118,1.584h1.897
					C153.985,34.869,153.296,34.056,152.381,33.868z"/>
				<circle fill="#FFFFFF" cx="151.97" cy="32.817" r="1.138"/>
				<g>
					<path fill="#FFFFFF" d="M153.1,33.773c0.389,0.215,0.707,0.532,0.924,0.914c-0.116-0.537-0.182-1.078,0.185-1.078
						c0.446,0,0.254,0.802,0.108,1.42h1.699c0-0.872-0.618-1.6-1.44-1.771c-0.02,0.188-0.175,0.333-0.367,0.333
						s-0.349-0.145-0.368-0.333c-0.193,0.039-0.375,0.111-0.539,0.208C153.246,33.579,153.178,33.679,153.1,33.773z"/>
					<path fill="#FFFFFF" d="M152.4,35.029"/>
					<path fill="#FFFFFF" d="M153.813,35.029c-0.195-0.443-0.546-0.802-0.981-1.011c-0.062,0.047-0.128,0.086-0.197,0.121"/>
				</g>
			</g>
		</g>
	</g>
</g>
</svg>
